<?xml version="1.0" encoding="UTF-8"?>
<svg id="Layer_2" xmlns="http://www.w3.org/2000/svg" version="1.1" xmlns:xlink="http://www.w3.org/1999/xlink" viewBox="0 0 512 512">
  <!-- Generator: Adobe Illustrator 29.5.0, SVG Export Plug-In . SVG Version: 2.1.0 Build 137)  -->
  <defs>
    <linearGradient id="New_Gradient_Swatch" data-name="New Gradient Swatch" x1="388.92" y1="-1460.69" x2="388.92" y2="-1687.7" gradientTransform="translate(-620.07 -640.44) rotate(-30.01) scale(.9 -.9)" gradientUnits="userSpaceOnUse">
      <stop offset="0" stop-color="#de5709"/>
      <stop offset=".8" stop-color="#fdac33"/>
    </linearGradient>
    <linearGradient id="linear-gradient" x1="388.93" y1="-1457.2" x2="388.93" y2="-1626.6" gradientTransform="translate(-620.07 -640.44) rotate(-30.01) scale(.9 -.9)" gradientUnits="userSpaceOnUse">
      <stop offset="0" stop-color="#f90"/>
      <stop offset="1" stop-color="#fcd34f"/>
    </linearGradient>
    <linearGradient id="linear-gradient1" x1="-4930.26" y1="1629.58" x2="-4930.26" y2="1402.58" gradientTransform="translate(-4390.84 -645.37) rotate(-149.99) scale(.9) skewX(.02)" gradientUnits="userSpaceOnUse">
      <stop offset="0" stop-color="#de5709"/>
      <stop offset=".8" stop-color="#fdac33"/>
    </linearGradient>
    <linearGradient id="linear-gradient2" x1="-4930.27" y1="1633.07" x2="-4930.27" y2="1463.68" gradientTransform="translate(-4390.84 -645.37) rotate(-149.99) scale(.9) skewX(.02)" gradientUnits="userSpaceOnUse">
      <stop offset="0" stop-color="#f90"/>
      <stop offset="1" stop-color="#fcd34f"/>
    </linearGradient>
    <linearGradient id="linear-gradient3" x1="256" y1="165.74" x2="256" y2="510.27" gradientTransform="translate(0 514) scale(1 -1)" gradientUnits="userSpaceOnUse">
      <stop offset="0" stop-color="#f90"/>
      <stop offset=".11" stop-color="#ffa200"/>
      <stop offset=".37" stop-color="#ffb300"/>
      <stop offset=".65" stop-color="#ffbd00"/>
      <stop offset="1" stop-color="#ffc100"/>
    </linearGradient>
    <linearGradient id="linear-gradient4" x1="256" y1="212.5" x2="256" y2="463.52" gradientTransform="translate(0 514) scale(1 -1)" gradientUnits="userSpaceOnUse">
      <stop offset="0" stop-color="#ffe187"/>
      <stop offset="1" stop-color="#fff8e0"/>
    </linearGradient>
    <linearGradient id="linear-gradient5" x1="256" y1="255.15" x2="256" y2="420.85" gradientTransform="translate(0 514) scale(1 -1)" gradientUnits="userSpaceOnUse">
      <stop offset="0" stop-color="#fd7600"/>
      <stop offset=".71" stop-color="#fdbf30"/>
    </linearGradient>
    <linearGradient id="linear-gradient6" x1="149.91" y1="173.99" x2="188.69" y2="173.99" gradientTransform="matrix(1,0,0,1,0,0)" xlink:href="#linear-gradient5"/>
    <linearGradient id="New_Gradient_Swatch1" data-name="New Gradient Swatch" x1="145.06" y1="173.99" x2="192.43" y2="173.99" gradientTransform="matrix(1,0,0,1,0,0)" xlink:href="#New_Gradient_Swatch"/>
    <linearGradient id="linear-gradient7" x1="196.8" y1="174.01" x2="240.88" y2="174.01" gradientTransform="matrix(1,0,0,1,0,0)" xlink:href="#linear-gradient5"/>
    <linearGradient id="New_Gradient_Swatch2" data-name="New Gradient Swatch" x1="193.06" y1="174.01" x2="244.63" y2="174.01" gradientTransform="matrix(1,0,0,1,0,0)" xlink:href="#New_Gradient_Swatch"/>
    <linearGradient id="linear-gradient8" x1="251.07" y1="174.01" x2="295.15" y2="174.01" gradientTransform="matrix(1,0,0,1,0,0)" xlink:href="#linear-gradient5"/>
    <linearGradient id="New_Gradient_Swatch3" data-name="New Gradient Swatch" x1="247.32" y1="174.01" x2="298.9" y2="174.01" gradientTransform="matrix(1,0,0,1,0,0)" xlink:href="#New_Gradient_Swatch"/>
    <linearGradient id="linear-gradient9" x1="303.22" y1="174.1" x2="365.91" y2="174.1" gradientTransform="matrix(1,0,0,1,0,0)" xlink:href="#linear-gradient5"/>
    <linearGradient id="New_Gradient_Swatch4" data-name="New Gradient Swatch" x1="298.49" y1="174.1" x2="370.71" y2="174.1" gradientTransform="matrix(1,0,0,1,0,0)" xlink:href="#New_Gradient_Swatch"/>
  </defs>
  <g id="Icon">
    <g id="_113">
      <g>
        <path d="M495.2,424.6l-102.8-11.81-41.18,94.94-96.29-166.78,144-83.13,96.28,166.78Z" fill="url(#New_Gradient_Swatch)"/>
        <path d="M276.23,328.65l101.38-58.54,71.84,124.46-72.37-8.31-28.99,66.83-71.86-124.44Z" fill="url(#linear-gradient)"/>
        <path d="M16.8,424.6l102.8-11.81,41.18,94.94,96.29-166.78-144-83.13L16.8,424.6Z" fill="url(#linear-gradient1)"/>
        <path d="M235.77,328.65l-101.38-58.54-71.84,124.46,72.37-8.31,28.99,66.83,71.86-124.44Z" fill="url(#linear-gradient2)"/>
      </g>
      <circle cx="256" cy="175.99" r="172.27" fill="url(#linear-gradient3)"/>
      <g>
        <circle cx="256" cy="175.99" r="125.51" fill="url(#linear-gradient4)"/>
        <path d="M206.72,258.85v-23.33l29.48-3.64v-104.7l-29.71-.35v-22.08l69.54-11.61v138.73l29.48,3.64v23.33h-98.78Z" display="none" fill="url(#linear-gradient5)"/>
        <g>
          <g>
            <path d="M154.81,197.49h11.43v-34.21c0-1.68.04-3.43.12-5.26l-6.73,6.38c-.44.4-.87.69-1.31.86-.44.17-.86.26-1.27.26-.71,0-1.34-.18-1.9-.54-.56-.36-.97-.74-1.24-1.14l-4-6.05,18.53-17.73h10.45v57.44h9.8v10.43h-33.88v-10.43Z" fill="url(#linear-gradient6)"/>
            <path d="M178.89,140.06v57.44h9.8v10.43h-33.88v-10.43h11.43v-34.21c0-1.68.04-3.43.12-5.26l-6.73,6.38c-.44.4-.87.69-1.31.86-.44.17-.86.26-1.27.26-.71,0-1.34-.18-1.9-.54-.56-.36-.97-.74-1.24-1.14l-4-6.05,18.53-17.73h10.45M182.64,136.31h-15.7l-1.09,1.04-18.53,17.73-2.26,2.16,1.73,2.61,4,6.05c.58.86,1.36,1.6,2.35,2.23,1.16.75,2.48,1.12,3.92,1.12.88,0,1.77-.17,2.64-.52.86-.34,1.7-.88,2.48-1.6l.32-.3v26.9h-11.43v17.92h41.37v-17.92h-9.8v-57.44h0Z" fill="url(#New_Gradient_Swatch1)"/>
          </g>
          <g>
            <path d="M240.88,173.99c0,5.93-.56,11.06-1.67,15.41-1.12,4.34-2.66,7.94-4.63,10.8-1.97,2.86-4.31,4.98-7.02,6.38s-5.64,2.09-8.8,2.09-6.08-.7-8.76-2.09c-2.68-1.4-5-3.52-6.96-6.38-1.96-2.85-3.49-6.45-4.59-10.8-1.1-4.34-1.65-9.48-1.65-15.41s.55-11.06,1.65-15.41c1.1-4.34,2.63-7.94,4.59-10.8,1.96-2.85,4.28-4.97,6.96-6.35,2.68-1.38,5.6-2.07,8.76-2.07s6.09.69,8.8,2.07c2.71,1.38,5.05,3.5,7.02,6.35,1.97,2.86,3.52,6.45,4.63,10.8,1.12,4.34,1.67,9.48,1.67,15.41ZM227.82,173.99c0-4.69-.26-8.52-.78-11.52-.52-2.99-1.2-5.34-2.06-7.05-.86-1.71-1.83-2.88-2.92-3.51-1.09-.64-2.19-.95-3.31-.95s-2.21.32-3.29.95c-1.08.64-2.03,1.81-2.86,3.51-.83,1.71-1.5,4.06-2,7.05-.5,3-.76,6.83-.76,11.52s.25,8.56.76,11.54c.5,2.98,1.17,5.33,2,7.05.83,1.72,1.78,2.9,2.86,3.54,1.07.64,2.17.95,3.29.95s2.22-.32,3.31-.95c1.09-.64,2.06-1.82,2.92-3.54.86-1.72,1.54-4.07,2.06-7.05.52-2.98.78-6.83.78-11.54Z" fill="url(#linear-gradient7)"/>
            <path d="M218.76,139.36c3.16,0,6.09.69,8.8,2.07,2.71,1.38,5.05,3.5,7.02,6.35,1.97,2.86,3.52,6.45,4.63,10.8,1.12,4.34,1.67,9.48,1.67,15.41s-.56,11.06-1.67,15.41c-1.12,4.34-2.66,7.94-4.63,10.8-1.97,2.86-4.31,4.98-7.02,6.38-2.71,1.4-5.64,2.09-8.8,2.09s-6.08-.7-8.76-2.09c-2.68-1.4-5-3.52-6.96-6.38-1.96-2.85-3.49-6.45-4.59-10.8-1.1-4.34-1.65-9.48-1.65-15.41s.55-11.06,1.65-15.41c1.1-4.34,2.63-7.94,4.59-10.8,1.96-2.85,4.28-4.97,6.96-6.35,2.68-1.38,5.6-2.07,8.76-2.07M218.76,197.08c1.12,0,2.22-.32,3.31-.95,1.09-.64,2.06-1.82,2.92-3.54.86-1.72,1.54-4.07,2.06-7.05.52-2.98.78-6.83.78-11.54s-.26-8.52-.78-11.52c-.52-2.99-1.2-5.34-2.06-7.05-.86-1.71-1.83-2.88-2.92-3.51-1.09-.64-2.19-.95-3.31-.95s-2.21.32-3.29.95c-1.08.64-2.03,1.81-2.86,3.51-.83,1.71-1.5,4.06-2,7.05-.5,3-.76,6.83-.76,11.52s.25,8.56.76,11.54c.5,2.98,1.17,5.33,2,7.05.83,1.72,1.78,2.9,2.86,3.54,1.07.64,2.17.95,3.29.95M218.76,135.61c-3.74,0-7.27.84-10.47,2.49-3.22,1.66-6.03,4.21-8.33,7.56-2.2,3.21-3.93,7.24-5.13,12-1.17,4.63-1.77,10.12-1.77,16.33s.59,11.7,1.77,16.33c1.21,4.75,2.93,8.79,5.13,12,2.3,3.35,5.1,5.9,8.32,7.58,3.21,1.67,6.73,2.52,10.49,2.52s7.28-.84,10.51-2.51c3.25-1.67,6.07-4.22,8.39-7.58,2.22-3.21,3.96-7.24,5.18-12,1.19-4.63,1.79-10.13,1.79-16.34s-.6-11.71-1.79-16.34c-1.22-4.75-2.96-8.79-5.18-12-2.32-3.36-5.15-5.9-8.4-7.56-3.23-1.65-6.76-2.48-10.5-2.48h0ZM218.76,193.33c-.44,0-.89-.14-1.38-.43-.11-.06-.67-.45-1.39-1.94-.67-1.4-1.24-3.43-1.68-6.05-.47-2.76-.7-6.43-.7-10.92s.24-8.12.7-10.9c.44-2.63,1-4.66,1.67-6.03.7-1.44,1.24-1.84,1.4-1.93.49-.29.94-.43,1.38-.43s.91.14,1.42.44c.16.09.73.51,1.46,1.96.69,1.37,1.26,3.39,1.72,6.01.48,2.77.72,6.43.72,10.88s-.24,8.15-.72,10.9c-.45,2.61-1.03,4.63-1.72,6.02-.73,1.47-1.3,1.88-1.45,1.97-.51.3-.97.44-1.42.44h0Z" fill="url(#New_Gradient_Swatch2)"/>
          </g>
          <g>
            <path d="M295.15,173.99c0,5.93-.56,11.06-1.67,15.41-1.12,4.34-2.66,7.94-4.63,10.8-1.97,2.86-4.31,4.98-7.02,6.38-2.71,1.4-5.64,2.09-8.8,2.09s-6.07-.7-8.75-2.09-5-3.52-6.96-6.38c-1.96-2.85-3.49-6.45-4.59-10.8-1.1-4.34-1.65-9.48-1.65-15.41s.55-11.06,1.65-15.41c1.1-4.34,2.63-7.94,4.59-10.8,1.96-2.85,4.28-4.97,6.96-6.35,2.68-1.38,5.6-2.07,8.75-2.07s6.09.69,8.8,2.07c2.71,1.38,5.05,3.5,7.02,6.35,1.97,2.86,3.52,6.45,4.63,10.8,1.12,4.34,1.67,9.48,1.67,15.41ZM282.09,173.99c0-4.69-.26-8.52-.77-11.52-.52-2.99-1.21-5.34-2.06-7.05-.86-1.71-1.83-2.88-2.92-3.51-1.09-.64-2.19-.95-3.31-.95s-2.21.32-3.28.95c-1.08.64-2.03,1.81-2.86,3.51-.83,1.71-1.5,4.06-2,7.05-.5,3-.76,6.83-.76,11.52s.25,8.56.76,11.54c.5,2.98,1.17,5.33,2,7.05.83,1.72,1.78,2.9,2.86,3.54,1.07.64,2.17.95,3.28.95s2.22-.32,3.31-.95c1.09-.64,2.06-1.82,2.92-3.54.86-1.72,1.54-4.07,2.06-7.05.52-2.98.77-6.83.77-11.54Z" fill="url(#linear-gradient8)"/>
            <path d="M273.03,139.36c3.16,0,6.09.69,8.8,2.07,2.71,1.38,5.05,3.5,7.02,6.35,1.97,2.86,3.52,6.45,4.63,10.8,1.12,4.34,1.67,9.48,1.67,15.41s-.56,11.06-1.67,15.41c-1.12,4.34-2.66,7.94-4.63,10.8-1.97,2.86-4.31,4.98-7.02,6.38-2.71,1.4-5.64,2.09-8.8,2.09s-6.07-.7-8.75-2.09-5-3.52-6.96-6.38c-1.96-2.85-3.49-6.45-4.59-10.8-1.1-4.34-1.65-9.48-1.65-15.41s.55-11.06,1.65-15.41c1.1-4.34,2.63-7.94,4.59-10.8,1.96-2.85,4.28-4.97,6.96-6.35,2.68-1.38,5.6-2.07,8.75-2.07M273.03,197.08c1.12,0,2.22-.32,3.31-.95,1.09-.64,2.06-1.82,2.92-3.54.86-1.72,1.54-4.07,2.06-7.05.52-2.98.77-6.83.77-11.54s-.26-8.52-.77-11.52c-.52-2.99-1.21-5.34-2.06-7.05-.86-1.71-1.83-2.88-2.92-3.51-1.09-.64-2.19-.95-3.31-.95s-2.21.32-3.28.95c-1.08.64-2.03,1.81-2.86,3.51-.83,1.71-1.5,4.06-2,7.05-.5,3-.76,6.83-.76,11.52s.25,8.56.76,11.54c.5,2.98,1.17,5.33,2,7.05.83,1.72,1.78,2.9,2.86,3.54,1.07.64,2.17.95,3.28.95M273.03,135.61c-3.74,0-7.27.84-10.47,2.49-3.23,1.66-6.03,4.21-8.33,7.56-2.2,3.21-3.93,7.24-5.13,12-1.17,4.63-1.77,10.12-1.77,16.33s.59,11.7,1.77,16.33c1.21,4.75,2.93,8.79,5.13,12,2.3,3.35,5.1,5.9,8.32,7.58,3.21,1.67,6.74,2.52,10.49,2.52s7.28-.84,10.51-2.51c3.25-1.67,6.07-4.22,8.38-7.58,2.22-3.21,3.96-7.24,5.18-12,1.19-4.63,1.79-10.13,1.79-16.34s-.6-11.71-1.79-16.34c-1.22-4.75-2.96-8.79-5.18-12-2.32-3.36-5.15-5.9-8.4-7.56-3.23-1.65-6.76-2.48-10.5-2.48h0ZM273.03,193.33c-.44,0-.89-.14-1.37-.43-.31-.18-.84-.79-1.39-1.94-.67-1.4-1.24-3.43-1.68-6.05-.47-2.76-.7-6.43-.7-10.92s.24-8.12.7-10.9c.44-2.63,1-4.66,1.67-6.04.7-1.44,1.24-1.84,1.39-1.93.49-.29.94-.43,1.38-.43s.91.14,1.42.44c.16.09.73.51,1.46,1.96.69,1.37,1.27,3.39,1.72,6.01.48,2.77.72,6.43.72,10.88s-.24,8.15-.72,10.9c-.45,2.61-1.03,4.63-1.72,6.02-.73,1.47-1.3,1.88-1.45,1.97-.51.3-.97.44-1.42.44h0Z" fill="url(#New_Gradient_Swatch3)"/>
          </g>
          <g>
            <path d="M331.71,156.53c0,2.48-.39,4.75-1.18,6.8-.79,2.05-1.84,3.81-3.14,5.28-1.31,1.47-2.82,2.61-4.55,3.42-1.73.81-3.53,1.21-5.41,1.21-2.07,0-3.97-.4-5.69-1.21-1.73-.81-3.22-1.95-4.49-3.42-1.27-1.47-2.25-3.23-2.96-5.28-.71-2.05-1.06-4.31-1.06-6.8s.35-4.91,1.06-7.01c.71-2.09,1.69-3.89,2.96-5.38,1.27-1.49,2.76-2.64,4.49-3.47,1.73-.82,3.63-1.23,5.69-1.23s3.98.41,5.74,1.23c1.75.82,3.27,1.98,4.53,3.47,1.27,1.49,2.25,3.28,2.96,5.38.71,2.09,1.06,4.43,1.06,7.01ZM350.4,142.24c.41-.53.91-1.02,1.51-1.47.6-.45,1.43-.67,2.49-.67h9.22l-44.82,65.77c-.41.59-.92,1.08-1.53,1.47-.61.39-1.35.58-2.22.58h-9.47l44.82-65.68ZM321.99,156.53c0-1.58-.12-2.89-.35-3.93-.23-1.04-.55-1.87-.96-2.49-.41-.62-.89-1.05-1.45-1.3-.56-.25-1.16-.37-1.82-.37s-1.25.12-1.8.37c-.54.25-1.01.68-1.39,1.3-.38.62-.68,1.45-.9,2.49-.22,1.04-.33,2.35-.33,3.93,0,1.49.11,2.73.33,3.72.22.99.52,1.79.9,2.37.38.59.84,1.01,1.39,1.26.54.25,1.14.37,1.8.37s1.26-.12,1.82-.37c.56-.25,1.04-.67,1.45-1.26.41-.59.73-1.38.96-2.37.23-.99.35-2.23.35-3.72ZM365.91,192c0,2.48-.39,4.76-1.18,6.82s-1.84,3.83-3.14,5.31c-1.31,1.47-2.82,2.61-4.55,3.42s-3.53,1.21-5.41,1.21c-2.07,0-3.97-.4-5.69-1.21s-3.22-1.95-4.49-3.42c-1.27-1.47-2.25-3.24-2.96-5.31-.71-2.06-1.06-4.34-1.06-6.82s.35-4.91,1.06-7c.71-2.09,1.69-3.89,2.96-5.38,1.27-1.49,2.76-2.64,4.49-3.47,1.73-.82,3.63-1.23,5.69-1.23s3.98.41,5.73,1.23c1.76.82,3.27,1.98,4.53,3.47,1.27,1.49,2.25,3.28,2.96,5.38.71,2.09,1.06,4.43,1.06,7ZM356.2,192c0-1.55-.12-2.85-.35-3.89-.23-1.04-.55-1.87-.96-2.49-.41-.62-.89-1.05-1.45-1.3-.56-.25-1.16-.37-1.82-.37s-1.25.12-1.8.37c-.54.25-1.01.68-1.39,1.3-.38.62-.68,1.45-.9,2.49-.22,1.04-.33,2.34-.33,3.89s.11,2.73.33,3.72c.22.99.52,1.78.9,2.37.38.59.84,1.01,1.39,1.26.54.25,1.14.37,1.8.37s1.26-.12,1.82-.37c.56-.25,1.04-.67,1.45-1.26.41-.59.73-1.38.96-2.37.23-.99.35-2.23.35-3.72Z" fill="url(#linear-gradient9)"/>
            <path d="M317.42,139.45c2.07,0,3.98.41,5.74,1.23,1.75.82,3.27,1.98,4.53,3.47,1.27,1.49,2.25,3.28,2.96,5.38.71,2.09,1.06,4.43,1.06,7.01s-.39,4.75-1.18,6.8c-.79,2.05-1.84,3.81-3.14,5.28-1.31,1.47-2.82,2.61-4.55,3.42-1.73.81-3.53,1.21-5.41,1.21-2.07,0-3.97-.4-5.69-1.21-1.73-.81-3.22-1.95-4.49-3.42-1.26-1.47-2.25-3.23-2.96-5.28-.71-2.05-1.06-4.31-1.06-6.8s.35-4.91,1.06-7.01c.71-2.09,1.69-3.89,2.96-5.38,1.27-1.49,2.76-2.64,4.49-3.47,1.73-.82,3.63-1.23,5.69-1.23M317.42,164.26c.65,0,1.26-.12,1.82-.37.56-.25,1.04-.67,1.45-1.26.41-.59.73-1.38.96-2.37.23-.99.35-2.23.35-3.72,0-1.58-.12-2.89-.35-3.93-.23-1.04-.55-1.87-.96-2.49-.41-.62-.89-1.05-1.45-1.3-.56-.25-1.16-.37-1.82-.37s-1.25.12-1.8.37c-.54.25-1.01.68-1.39,1.3-.38.62-.68,1.45-.9,2.49-.22,1.04-.33,2.35-.33,3.93,0,1.49.11,2.73.33,3.72.22.99.52,1.79.9,2.37.38.59.84,1.01,1.39,1.26.54.25,1.14.37,1.8.37M363.63,140.1l-44.82,65.77c-.41.59-.92,1.08-1.53,1.47-.61.39-1.35.58-2.22.58h-9.47l44.82-65.68c.41-.53.91-1.02,1.51-1.47.6-.45,1.43-.67,2.49-.67h9.22M351.63,174.92c2.07,0,3.98.41,5.73,1.23,1.76.82,3.27,1.98,4.53,3.47,1.27,1.49,2.25,3.28,2.96,5.38.71,2.09,1.06,4.43,1.06,7s-.39,4.76-1.18,6.82-1.84,3.83-3.14,5.31c-1.31,1.47-2.82,2.61-4.55,3.42-1.73.81-3.53,1.21-5.41,1.21-2.07,0-3.97-.4-5.69-1.21-1.73-.81-3.22-1.95-4.49-3.42-1.26-1.47-2.25-3.24-2.96-5.31-.71-2.06-1.06-4.34-1.06-6.82s.35-4.91,1.06-7c.71-2.09,1.69-3.89,2.96-5.38,1.27-1.49,2.76-2.64,4.49-3.47,1.73-.82,3.63-1.23,5.69-1.23M351.63,199.73c.65,0,1.26-.12,1.82-.37.56-.25,1.04-.67,1.45-1.26.41-.59.73-1.38.96-2.37.23-.99.35-2.23.35-3.72s-.12-2.85-.35-3.89c-.23-1.04-.55-1.87-.96-2.49-.41-.62-.89-1.05-1.45-1.3-.56-.25-1.16-.37-1.82-.37s-1.25.12-1.8.37c-.54.25-1.01.68-1.39,1.3-.38.62-.68,1.45-.9,2.49-.22,1.04-.33,2.34-.33,3.89s.11,2.73.33,3.72c.22.99.52,1.78.9,2.37.38.59.84,1.01,1.39,1.26.54.25,1.14.37,1.8.37M317.42,135.71c-2.62,0-5.08.54-7.3,1.6-2.2,1.05-4.13,2.54-5.74,4.42-1.57,1.85-2.8,4.07-3.65,6.6-.83,2.47-1.26,5.23-1.26,8.2s.43,5.59,1.27,8.02c.86,2.49,2.09,4.67,3.66,6.5,1.61,1.87,3.54,3.35,5.75,4.38,2.22,1.04,4.67,1.56,7.28,1.56,1.83,0,3.62-.3,5.35-.89l-20.28,29.71-4,5.86h16.56c1.59,0,3.01-.39,4.23-1.16,1.04-.66,1.91-1.5,2.61-2.5l11.82-17.34c-.02.44-.03.89-.03,1.34,0,2.88.42,5.59,1.26,8.03.86,2.51,2.09,4.7,3.66,6.53,1.61,1.87,3.54,3.35,5.75,4.38,2.22,1.04,4.67,1.56,7.28,1.56,2.42,0,4.77-.53,6.99-1.56,2.19-1.02,4.13-2.48,5.77-4.33,1.6-1.8,2.89-3.97,3.84-6.45.95-2.48,1.43-5.23,1.43-8.16s-.42-5.73-1.26-8.2c-.86-2.53-2.08-4.76-3.65-6.6-1.61-1.89-3.56-3.39-5.8-4.43-2.25-1.05-4.71-1.59-7.32-1.59-1.8,0-3.53.25-5.16.76l20.25-29.72,3.99-5.86h-16.31c-1.89,0-3.48.48-4.74,1.43-.87.65-1.61,1.38-2.22,2.17l-.07.09-.06.09-11.87,17.4c.01-.33.02-.66.02-1,0-2.97-.42-5.73-1.26-8.2-.86-2.54-2.09-4.76-3.65-6.6-1.61-1.89-3.56-3.39-5.79-4.43-2.25-1.05-4.71-1.59-7.32-1.59h0ZM317.37,152.18s.04,0,.05,0c.06,0,.11,0,.15,0,.07.11.25.46.42,1.22.12.53.26,1.5.26,3.12,0,1.49-.14,2.39-.25,2.87-.18.76-.36,1.04-.39,1.09,0,0,0,0,0,0-.05,0-.11.02-.19.02-.02,0-.05,0-.08,0-.08-.16-.21-.48-.34-1.06-.11-.5-.24-1.41-.24-2.92,0-1.32.08-2.38.25-3.17.14-.65.28-1.01.36-1.19h0ZM351.57,187.7s.04,0,.05,0c.06,0,.11,0,.15,0,.07.11.25.45.42,1.23.17.77.26,1.8.26,3.07,0,1.49-.14,2.39-.25,2.88-.18.75-.35,1.04-.39,1.09,0,0,0,0,0,0-.05,0-.11.02-.19.02-.03,0-.06,0-.09,0-.07-.14-.2-.46-.34-1.06-.11-.5-.24-1.41-.24-2.92,0-1.29.08-2.34.25-3.12.14-.65.28-1.02.36-1.19h0Z" fill="url(#New_Gradient_Swatch4)"/>
          </g>
        </g>
      </g>
    </g>
  </g>
  <text transform="translate(134.92 207.21)" display="none" font-family="Lato-Black, Lato" font-size="94.47" font-weight="800" stroke="#000" stroke-miterlimit="10" stroke-width="8"><tspan x="0" y="0">100%</tspan></text>
</svg>