<?xml version="1.0" encoding="UTF-8"?>
<svg id="Layer_2" xmlns="http://www.w3.org/2000/svg" version="1.1" xmlns:xlink="http://www.w3.org/1999/xlink" viewBox="0 0 512 512">
  <!-- Generator: Adobe Illustrator 29.5.0, SVG Export Plug-In . SVG Version: 2.1.0 Build 137)  -->
  <defs>
    <linearGradient id="New_Gradient_Swatch_copy" data-name="New Gradient Swatch copy" x1="388.77" y1="-1460.95" x2="388.77" y2="-1687.96" gradientTransform="translate(-620.07 -640.44) rotate(-30.01) scale(.9 -.9)" gradientUnits="userSpaceOnUse">
      <stop offset="0" stop-color="#de5709"/>
      <stop offset=".8" stop-color="#fdac33"/>
    </linearGradient>
    <linearGradient id="linear-gradient" x1="388.78" y1="-1457.46" x2="388.78" y2="-1626.87" gradientTransform="translate(-620.07 -640.44) rotate(-30.01) scale(.9 -.9)" gradientUnits="userSpaceOnUse">
      <stop offset="0" stop-color="#f90"/>
      <stop offset="1" stop-color="#fcd34f"/>
    </linearGradient>
    <linearGradient id="linear-gradient1" x1="-4930.41" y1="1629.32" x2="-4930.41" y2="1402.31" gradientTransform="translate(-4390.84 -645.37) rotate(-149.99) scale(.9) skewX(.02)" gradientUnits="userSpaceOnUse">
      <stop offset="0" stop-color="#de5709"/>
      <stop offset=".8" stop-color="#fdac33"/>
    </linearGradient>
    <linearGradient id="linear-gradient2" x1="-4930.42" y1="1632.8" x2="-4930.42" y2="1463.41" gradientTransform="translate(-4390.84 -645.37) rotate(-149.99) scale(.9) skewX(.02)" gradientUnits="userSpaceOnUse">
      <stop offset="0" stop-color="#f90"/>
      <stop offset="1" stop-color="#fcd34f"/>
    </linearGradient>
    <linearGradient id="linear-gradient3" x1="256" y1="165.47" x2="256" y2="510" gradientTransform="translate(0 514) scale(1 -1)" gradientUnits="userSpaceOnUse">
      <stop offset="0" stop-color="#f90"/>
      <stop offset=".11" stop-color="#ffa200"/>
      <stop offset=".37" stop-color="#ffb300"/>
      <stop offset=".65" stop-color="#ffbd00"/>
      <stop offset="1" stop-color="#ffc100"/>
    </linearGradient>
    <linearGradient id="linear-gradient4" x1="256" y1="212.22" x2="256" y2="463.24" gradientTransform="translate(0 514) scale(1 -1)" gradientUnits="userSpaceOnUse">
      <stop offset="0" stop-color="#ffe187"/>
      <stop offset="1" stop-color="#fff8e0"/>
    </linearGradient>
    <linearGradient id="linear-gradient5" x1="255.98" y1="264.18" x2="255.98" y2="411.3" gradientTransform="translate(0 514) scale(1 -1)" gradientUnits="userSpaceOnUse">
      <stop offset="0" stop-color="#fd7600"/>
      <stop offset=".71" stop-color="#fdbf30"/>
    </linearGradient>
    <linearGradient id="New_Gradient_Swatch_copy1" data-name="New Gradient Swatch copy" x1="173.56" y1="176.26" x2="338.41" y2="176.26" gradientTransform="matrix(1,0,0,1,0,0)" xlink:href="#New_Gradient_Swatch_copy"/>
  </defs>
  <g id="Icon">
    <g id="_111">
      <g>
        <path d="M495.2,424.87l-102.8-11.81-41.18,94.94-96.29-166.78,144-83.13,96.28,166.78Z" fill="url(#New_Gradient_Swatch_copy)"/>
        <path d="M276.23,328.92l101.38-58.54,71.84,124.46-72.37-8.31-28.99,66.83-71.86-124.44Z" fill="url(#linear-gradient)"/>
        <path d="M16.8,424.87l102.8-11.81,41.18,94.94,96.29-166.78-144-83.13L16.8,424.87Z" fill="url(#linear-gradient1)"/>
        <path d="M235.77,328.92l-101.38-58.54-71.84,124.46,72.37-8.31,28.99,66.83,71.86-124.44Z" fill="url(#linear-gradient2)"/>
      </g>
      <circle cx="256" cy="176.27" r="172.27" fill="url(#linear-gradient3)"/>
      <g>
        <circle cx="256" cy="176.27" r="125.51" fill="url(#linear-gradient4)"/>
        <g display="none">
          <path d="M271.88,112.32l14.59,27.85,31,5.27c14.26,2.42,19.93,19.87,9.82,30.21l-21.99,22.48,4.56,31.12c2.1,14.31-12.74,25.08-25.7,18.68l-28.18-13.95-28.18,13.95c-12.96,6.42-27.81-4.36-25.7-18.68l4.56-31.12-21.99-22.48c-10.11-10.34-4.45-27.79,9.82-30.21l31-5.27,14.59-27.85c6.71-12.82,25.06-12.82,31.77,0h.03Z" fill="url(#linear-gradient5)"/>
          <path d="M255.97,102.7c6.26,0,12.53,3.2,15.88,9.61h.03l14.59,27.85,31,5.27c14.26,2.42,19.93,19.87,9.82,30.21l-21.99,22.48,4.56,31.12c1.68,11.41-7.42,20.57-17.74,20.57-2.63,0-5.33-.59-7.96-1.89l-28.18-13.95-28.18,13.95c-2.63,1.3-5.34,1.9-7.97,1.9-10.32,0-19.41-9.17-17.74-20.58l4.56-31.12-21.99-22.48c-10.11-10.34-4.45-27.79,9.82-30.21l31-5.27,14.59-27.85c3.36-6.41,9.62-9.61,15.88-9.61M255.97,96.7c-8.93,0-17.06,4.92-21.2,12.83l-13.21,25.22-28.07,4.77c-8.8,1.49-15.99,7.7-18.75,16.19-2.76,8.5-.6,17.74,5.65,24.13l19.91,20.35-4.13,28.18c-1.03,6.99.93,13.77,5.51,19.07,4.6,5.32,11.22,8.38,18.16,8.38,3.68,0,7.25-.85,10.63-2.52l25.52-12.63,25.52,12.64c3.38,1.67,6.95,2.52,10.62,2.52,6.95,0,13.57-3.05,18.17-8.38,4.58-5.3,6.53-12.07,5.51-19.06l-4.13-28.18,19.91-20.35c6.24-6.39,8.41-15.63,5.64-24.13-2.76-8.5-9.95-14.7-18.75-16.2l-28.07-4.77-13.21-25.22-1.68-3.22h-.36c-4.47-6.01-11.53-9.61-19.18-9.61h0Z" fill="url(#New_Gradient_Swatch_copy1)"/>
        </g>
        <g>
          <g>
            <polygon points="346.51 106.19 327.95 103.16 324.92 85.35 322.27 103.54 304.85 106.19 322.27 108.84 324.92 127.02 327.95 109.22 346.51 106.19" fill="#ffd15c"/>
            <polygon points="196.51 85.35 195.75 92.55 188.18 93.69 195.37 94.82 196.51 102.02 198.03 94.82 205.22 93.69 197.65 92.55 196.51 85.35" fill="#ffd15c"/>
          </g>
          <polygon points="186.28 108.46 184.39 95.58 182.5 108.46 170 110.35 182.5 112.63 184.39 125.51 186.28 112.63 199.54 110.35 186.28 108.46" fill="#cdd6e0"/>
          <polygon points="284.39 161.87 261.28 117.93 251.82 117.93 226.06 161.87 284.39 161.87" fill="#84dbff"/>
          <polygon points="313.94 117.93 261.28 117.93 284.39 161.87 313.94 117.93" fill="#54c0eb"/>
          <polygon points="345.76 161.87 314.32 117.93 313.94 117.93 284.39 161.87 345.76 161.87" fill="#84dbff"/>
          <polygon points="255.6 267.17 284.39 161.87 226.06 161.87 255.6 267.17" fill="#f2f2f2"/>
          <polygon points="251.82 117.93 197.27 117.93 226.06 161.87 251.82 117.93" fill="#54c0eb"/>
          <polygon points="197.27 117.93 196.89 117.93 165.45 161.87 226.06 161.87 197.27 117.93" fill="#84dbff"/>
          <polygon points="345.76 161.87 255.6 267.17 165.45 161.87 226.06 161.87 255.6 267.17 284.39 161.87 345.76 161.87" fill="#54c0eb"/>
          <g>
            <polygon points="284.39 150.13 282.88 159.98 272.65 161.49 282.88 163.01 284.39 173.61 285.91 163.01 296.13 161.49 285.91 159.98 284.39 150.13" fill="#fff"/>
            <polygon points="210.15 128.16 208.63 138.01 198.41 139.52 208.25 141.04 210.15 151.64 211.66 141.41 221.89 139.52 211.66 138.01 210.15 128.16" fill="#fff"/>
          </g>
        </g>
      </g>
    </g>
  </g>
  <g display="none">
    <polygon points="360.63 172.64 256.5 472.78 512.5 172.64 360.63 172.64" fill="#ffe182"/>
    <g>
      <polygon points="106.43 40.22 .5 172.64 152.37 172.64 106.43 40.22" fill="#ffcd73"/>
      <polygon points="360.63 172.64 512.5 172.64 406.57 40.22 360.63 172.64" fill="#ffcd73"/>
      <polygon points="360.63 172.64 256.5 40.22 152.37 172.64 360.63 172.64" fill="#ffcd73"/>
    </g>
    <polygon points="256.5 40.22 106.43 40.22 152.37 172.64 256.5 40.22" fill="#ffaa64"/>
    <polygon points="406.57 40.22 256.5 40.22 360.63 172.64 406.57 40.22" fill="#ffe182"/>
    <polygon points="152.37 172.64 256.5 472.78 360.63 172.64 152.37 172.64" fill="#ffaa64"/>
    <polygon points=".5 172.64 256.5 472.78 152.37 172.64 .5 172.64" fill="#ff8c5a"/>
  </g>
  <g display="none">
    <polygon points="406.57 53.47 106.43 53.47 .5 159.4 256.5 459.53 512.5 159.4 406.57 53.47" fill="#00c3ff"/>
    <polygon points="406.57 53.47 256.5 459.53 512.5 159.4 406.57 53.47" fill="#87daff"/>
    <polygon points="106.43 53.47 145.58 159.4 .5 159.4 106.43 53.47" fill="#00aaf0"/>
    <polygon points="256.5 53.47 145.58 159.4 367.42 159.4 256.5 53.47" fill="#87daff"/>
    <polygon points="367.42 159.4 512.5 159.4 406.57 53.47 367.42 159.4" fill="#a5e9ff"/>
    <polygon points=".5 159.4 145.58 159.4 256.5 459.53 .5 159.4" fill="#0096dc"/>
  </g>
</svg>