<?xml version="1.0" encoding="UTF-8"?>
<svg id="Layer_2" xmlns="http://www.w3.org/2000/svg" version="1.1" xmlns:xlink="http://www.w3.org/1999/xlink" viewBox="0 0 512 512">
  <!-- Generator: Adobe Illustrator 29.5.0, SVG Export Plug-In . SVG Version: 2.1.0 Build 137)  -->
  <defs>
    <linearGradient id="New_Gradient_Swatch" data-name="New Gradient Swatch" x1="379.29" y1="-1455.45" x2="379.29" y2="-1682.46" gradientTransform="translate(-620.07 -640.44) rotate(-30.01) scale(.9 -.9)" gradientUnits="userSpaceOnUse">
      <stop offset="0" stop-color="#858585"/>
      <stop offset="1" stop-color="#d9d9d9"/>
    </linearGradient>
    <linearGradient id="New_Gradient_Swatch_copy" data-name="New Gradient Swatch copy" x1="379.3" y1="-1451.96" x2="379.3" y2="-1621.35" gradientTransform="translate(-620.07 -640.44) rotate(-30.01) scale(.9 -.9)" gradientUnits="userSpaceOnUse">
      <stop offset="0" stop-color="#adadad"/>
      <stop offset="1" stop-color="#e6e6e6"/>
    </linearGradient>
    <linearGradient id="linear-gradient" x1="-4939.88" y1="1634.81" x2="-4939.88" y2="1407.82" gradientTransform="translate(-4390.84 -645.37) rotate(-149.99) scale(.9) skewX(.02)" gradientUnits="userSpaceOnUse">
      <stop offset="0" stop-color="#858585"/>
      <stop offset="1" stop-color="#d9d9d9"/>
    </linearGradient>
    <linearGradient id="linear-gradient1" x1="-4939.89" y1="1638.3" x2="-4939.89" y2="1468.91" gradientTransform="translate(-4390.84 -645.37) rotate(-149.99) scale(.9) skewX(.02)" gradientUnits="userSpaceOnUse">
      <stop offset="0" stop-color="#adadad"/>
      <stop offset="1" stop-color="#e6e6e6"/>
    </linearGradient>
    <linearGradient id="linear-gradient2" x1="256" y1="187.45" x2="256" y2="550.64" gradientTransform="translate(0 514) scale(1 -1)" gradientUnits="userSpaceOnUse">
      <stop offset="0" stop-color="#b3b3b3"/>
      <stop offset=".2" stop-color="#c7c7c7"/>
      <stop offset=".43" stop-color="#d8d8d8"/>
      <stop offset=".68" stop-color="#e2e2e2"/>
      <stop offset="1" stop-color="#e6e6e6"/>
    </linearGradient>
    <linearGradient id="linear-gradient3" x1="256" y1="212.22" x2="256" y2="463.24" gradientTransform="translate(0 514) scale(1 -1)" gradientUnits="userSpaceOnUse">
      <stop offset="0" stop-color="#616161"/>
      <stop offset="1" stop-color="#9c9c9c"/>
    </linearGradient>
    <linearGradient id="linear-gradient4" x1="256.01" y1="253.62" x2="256.01" y2="421.74" gradientTransform="translate(0 514) scale(1 -1)" gradientUnits="userSpaceOnUse">
      <stop offset="0" stop-color="#b6b6b6"/>
      <stop offset="1" stop-color="#ededed"/>
    </linearGradient>
    <linearGradient id="linear-gradient5" x1="157.46" y1="173.63" x2="205.83" y2="173.63" gradientTransform="matrix(1,0,0,1,0,0)" xlink:href="#linear-gradient4"/>
    <linearGradient id="New_Gradient_Swatch1" data-name="New Gradient Swatch" x1="151.46" y1="173.63" x2="211.83" y2="173.63" gradientTransform="matrix(1,0,0,1,0,0)" xlink:href="#New_Gradient_Swatch"/>
    <linearGradient id="linear-gradient6" x1="222.95" y1="174.39" x2="270.47" y2="174.39" gradientTransform="matrix(1,0,0,1,0,0)" xlink:href="#linear-gradient4"/>
    <linearGradient id="New_Gradient_Swatch2" data-name="New Gradient Swatch" x1="214.99" y1="174.39" x2="276.47" y2="174.39" gradientTransform="matrix(1,0,0,1,0,0)" xlink:href="#New_Gradient_Swatch"/>
    <linearGradient id="linear-gradient7" x1="285.81" y1="174.11" x2="358.36" y2="174.11" gradientTransform="matrix(1,0,0,1,0,0)" xlink:href="#linear-gradient4"/>
    <linearGradient id="New_Gradient_Swatch3" data-name="New Gradient Swatch" x1="276.28" y1="174.11" x2="367.97" y2="174.11" gradientTransform="matrix(1,0,0,1,0,0)" xlink:href="#New_Gradient_Swatch"/>
    <linearGradient id="New_Gradient_Swatch_copy1" data-name="New Gradient Swatch copy" x1="159.23" y1="174.39" x2="206.74" y2="174.39" gradientTransform="matrix(1,0,0,1,0,0)" xlink:href="#New_Gradient_Swatch_copy"/>
    <linearGradient id="New_Gradient_Swatch4" data-name="New Gradient Swatch" x1="151.27" y1="174.39" x2="212.74" y2="174.39" gradientTransform="matrix(1,0,0,1,0,0)" xlink:href="#New_Gradient_Swatch"/>
    <linearGradient id="New_Gradient_Swatch_copy2" data-name="New Gradient Swatch copy" x1="220.54" y1="174.01" x2="271.56" y2="174.01" gradientTransform="matrix(1,0,0,1,0,0)" xlink:href="#New_Gradient_Swatch_copy"/>
    <linearGradient id="New_Gradient_Swatch5" data-name="New Gradient Swatch" x1="214.54" y1="174.01" x2="277.56" y2="174.01" gradientTransform="matrix(1,0,0,1,0,0)" xlink:href="#New_Gradient_Swatch"/>
    <linearGradient id="New_Gradient_Swatch_copy3" data-name="New Gradient Swatch copy" x1="284.04" y1="174.11" x2="356.59" y2="174.11" gradientTransform="matrix(1,0,0,1,0,0)" xlink:href="#New_Gradient_Swatch_copy"/>
    <linearGradient id="New_Gradient_Swatch6" data-name="New Gradient Swatch" x1="274.51" y1="174.11" x2="366.21" y2="174.11" gradientTransform="matrix(1,0,0,1,0,0)" xlink:href="#New_Gradient_Swatch"/>
  </defs>
  <g id="Icon">
    <g id="_120">
      <g>
        <path d="M485.36,424.87l-102.81-11.81-41.18,94.94-96.28-166.78,143.98-83.13,96.29,166.78Z" fill="url(#New_Gradient_Swatch)"/>
        <path d="M266.4,328.92l101.36-58.54,71.85,124.46-72.37-8.31-29,66.83-71.84-124.44Z" fill="url(#New_Gradient_Swatch_copy)"/>
        <path d="M26.64,424.87l102.81-11.81,41.18,94.94,96.28-166.78-143.98-83.13L26.64,424.87Z" fill="url(#linear-gradient)"/>
        <path d="M245.6,328.92l-101.36-58.54-71.85,124.46,72.37-8.31,29,66.83,71.84-124.44Z" fill="url(#linear-gradient1)"/>
      </g>
      <path d="M276.53,13.57c7.72,9.19,20.61,12.12,31.55,7.2,15.19-6.84,32.89,1.67,37.01,17.83,2.97,11.64,13.31,19.87,25.3,20.17,16.66.43,28.9,15.78,25.6,32.11-2.38,11.76,3.37,23.67,14.04,29.16,14.82,7.62,19.19,26.75,9.14,40.05-7.24,9.58-7.24,22.79,0,32.36,10.05,13.29,5.69,32.43-9.14,40.05-10.67,5.49-16.42,17.39-14.04,29.16,3.28,16.33-8.96,31.68-25.6,32.11-12,.3-22.33,8.55-25.3,20.17-4.12,16.14-21.82,24.67-37.01,17.83-10.94-4.92-23.83-1.99-31.55,7.2-10.71,12.76-30.35,12.76-41.07,0-7.72-9.19-20.61-12.12-31.55-7.2-15.19,6.84-32.89-1.67-37.01-17.83-2.97-11.64-13.31-19.87-25.3-20.17-16.66-.43-28.9-15.78-25.6-32.11,2.38-11.76-3.37-23.67-14.04-29.16-14.82-7.62-19.19-26.75-9.14-40.05,7.24-9.58,7.24-22.79,0-32.36-10.05-13.29-5.69-32.43,9.14-40.05,10.67-5.49,16.42-17.39,14.04-29.16-3.28-16.33,8.96-31.68,25.6-32.11,12-.3,22.33-8.55,25.3-20.17,4.12-16.14,21.82-24.67,37.01-17.83,10.94,4.92,23.83,1.99,31.55-7.2,10.71-12.76,30.35-12.76,41.07,0h0Z" fill="url(#linear-gradient2)"/>
      <g>
        <circle cx="256" cy="176.27" r="125.51" fill="url(#linear-gradient3)"/>
        <path d="M198.93,260.32v-25.6l53.38-56.22c4.78-5.46,8.57-10.28,11.38-14.46s4.84-8.01,6.09-11.49,1.87-6.87,1.87-10.12c0-5.39-1.44-9.96-4.32-13.71-2.88-3.76-7.21-5.63-12.97-5.63-6.29,0-10.96,2.22-14,6.65-3.04,4.44-4.55,10.41-4.55,17.93h-39.04l-.23-.68c-.23-10.24,1.99-19.5,6.65-27.76,4.67-8.27,11.4-14.83,20.2-19.68s19.15-7.29,31.07-7.29,22.13,2.07,30.67,6.21,15.11,9.94,19.68,17.41c4.59,7.47,6.88,16.21,6.88,26.24,0,6.83-1.15,13.1-3.47,18.83-2.32,5.73-6.11,11.85-11.38,18.37s-12.31,14.41-21.11,23.67l-25.04,26.52.23.58h32.89l1.71-13.77h29.94v44.05h-116.54v-.06Z" display="none" fill="url(#linear-gradient4)"/>
      </g>
      <g display="none">
        <g>
          <path d="M182.78,138.85c3.4,0,6.46.5,9.19,1.49,2.72.99,5.05,2.37,6.97,4.13,1.92,1.76,3.39,3.87,4.42,6.31,1.02,2.44,1.54,5.12,1.54,8.05,0,2.52-.35,4.85-1.06,6.99-.71,2.14-1.68,4.18-2.9,6.12s-2.65,3.81-4.27,5.62c-1.62,1.81-3.35,3.65-5.17,5.5l-13.46,13.79c1.73-.5,3.44-.9,5.12-1.2,1.68-.3,3.27-.45,4.75-.45h12.85c1.57,0,2.82.43,3.73,1.3.91.87,1.37,2.01,1.37,3.42v8.5h-48.37v-4.72c0-.91.19-1.89.57-2.93s1.04-1.98,1.98-2.83l19.84-19.98c1.7-1.7,3.18-3.32,4.44-4.87,1.26-1.54,2.3-3.06,3.12-4.56.82-1.5,1.43-2.99,1.84-4.49.41-1.5.61-3.08.61-4.75,0-2.74-.65-4.84-1.96-6.31-1.31-1.46-3.3-2.2-5.97-2.2-1.1,0-2.11.16-3.02.47-.91.31-1.73.74-2.46,1.28-.72.54-1.35,1.17-1.87,1.89-.52.72-.94,1.51-1.25,2.36-.5,1.42-1.14,2.44-1.91,3.07-.77.63-1.82.94-3.14.94-.32,0-.65-.02-1.02-.05-.36-.03-.73-.08-1.11-.14l-7.75-1.37c.5-3.43,1.47-6.42,2.9-8.97,1.43-2.55,3.21-4.68,5.34-6.38,2.13-1.7,4.56-2.97,7.3-3.8,2.74-.83,5.68-1.25,8.83-1.25Z" fill="url(#linear-gradient5)"/>
          <path d="M182.78,138.85c3.4,0,6.46.5,9.19,1.49,2.72.99,5.05,2.37,6.97,4.13,1.92,1.76,3.39,3.87,4.42,6.31,1.02,2.44,1.54,5.12,1.54,8.05,0,2.52-.35,4.85-1.06,6.99-.71,2.14-1.68,4.18-2.9,6.12-1.23,1.94-2.65,3.81-4.27,5.62-1.62,1.81-3.35,3.65-5.17,5.5l-13.46,13.79c1.73-.5,3.44-.9,5.12-1.2,1.68-.3,3.27-.45,4.75-.45h12.85c1.57,0,2.82.43,3.73,1.3.91.87,1.37,2.01,1.37,3.42v8.5h-48.37v-4.72c0-.91.19-1.89.57-2.93.38-1.04,1.04-1.98,1.98-2.83l19.84-19.98c1.7-1.7,3.18-3.32,4.44-4.87,1.26-1.54,2.3-3.06,3.12-4.56.82-1.5,1.43-2.99,1.84-4.49.41-1.5.61-3.08.61-4.75,0-2.74-.65-4.84-1.96-6.31-1.31-1.46-3.3-2.2-5.97-2.2-1.1,0-2.11.16-3.02.47-.91.31-1.73.74-2.46,1.28-.72.54-1.35,1.17-1.87,1.89-.52.72-.94,1.51-1.25,2.36-.5,1.42-1.14,2.44-1.91,3.07-.77.63-1.82.94-3.14.94-.32,0-.65-.02-1.02-.05-.36-.03-.73-.08-1.11-.14l-7.75-1.37c.5-3.43,1.47-6.42,2.9-8.97,1.43-2.55,3.21-4.68,5.34-6.38,2.13-1.7,4.56-2.97,7.3-3.8,2.74-.83,5.68-1.25,8.83-1.25M182.78,132.85c-3.73,0-7.29.51-10.58,1.51-3.46,1.05-6.59,2.69-9.3,4.86-2.72,2.18-5.02,4.91-6.82,8.12-1.79,3.18-3,6.9-3.61,11.04l-.85,5.76,5.74,1.01,7.75,1.37h.03s.03,0,.03,0c.54.09,1.08.16,1.6.2.51.05,1.03.07,1.52.07,2.74,0,5.07-.77,6.94-2.3,1.62-1.32,2.88-3.22,3.75-5.66.13-.34.29-.64.49-.92.16-.22.34-.4.56-.56.23-.17.51-.31.84-.43.28-.1.64-.14,1.07-.14,1.01,0,1.43.17,1.52.22.16.22.41.91.41,2.28,0,1.13-.14,2.19-.4,3.16-.28,1.04-.73,2.11-1.32,3.19-.64,1.17-1.48,2.39-2.5,3.64-1.13,1.38-2.49,2.87-4.03,4.42l-19.75,19.89c-1.61,1.48-2.77,3.2-3.47,5.12-.62,1.69-.93,3.37-.93,4.98v10.72h60.37v-14.5c0-3.08-1.12-5.76-3.24-7.78-1.42-1.35-3.93-2.95-7.86-2.95h-6.87l1.9-1.95c1.87-1.91,3.68-3.82,5.35-5.69,1.83-2.04,3.47-4.2,4.87-6.41,1.49-2.34,2.67-4.85,3.53-7.45.91-2.74,1.37-5.73,1.37-8.88,0-3.71-.67-7.2-2-10.37-1.36-3.23-3.34-6.06-5.89-8.41-2.5-2.29-5.52-4.09-8.97-5.35-3.37-1.23-7.15-1.85-11.24-1.85h0Z" fill="url(#New_Gradient_Swatch1)"/>
        </g>
        <g>
          <path d="M267.92,145.65c0,1.01-.16,1.92-.47,2.74-.31.82-.81,1.54-1.49,2.15-.68.61-1.57,1.09-2.67,1.42-1.1.33-2.43.5-3.97.5h-16.44l-1.94,11.38c1.29-.22,2.53-.39,3.73-.5,1.2-.11,2.36-.17,3.5-.17,3.62,0,6.82.55,9.59,1.65,2.77,1.1,5.1,2.61,6.99,4.51,1.89,1.91,3.31,4.14,4.27,6.71.96,2.57,1.44,5.31,1.44,8.24,0,3.68-.65,7.05-1.96,10.08-1.31,3.04-3.13,5.66-5.46,7.86-2.33,2.21-5.11,3.91-8.34,5.12-3.23,1.21-6.76,1.82-10.6,1.82-2.24,0-4.37-.24-6.4-.71-2.03-.47-3.94-1.11-5.72-1.91-1.78-.8-3.42-1.73-4.94-2.79-1.51-1.05-2.88-2.18-4.11-3.38l4.53-6.05c.47-.63,1.02-1.11,1.65-1.44.63-.33,1.31-.5,2.03-.5.94,0,1.83.26,2.67.78.83.52,1.75,1.09,2.74,1.7.99.61,2.15,1.17,3.47,1.68,1.32.5,2.96.76,4.91.76s3.62-.32,5.01-.97c1.39-.64,2.51-1.53,3.38-2.64.87-1.12,1.5-2.42,1.89-3.92.39-1.5.59-3.09.59-4.79,0-3.34-.94-5.88-2.83-7.63-1.89-1.75-4.57-2.62-8.03-2.62-3.09,0-6.11.58-9.07,1.75l-9.07-2.46,5.86-34.43h35.24v6.05Z" fill="url(#linear-gradient6)"/>
          <path d="M267.92,139.6v6.05c0,1.01-.16,1.92-.47,2.74-.31.82-.81,1.54-1.49,2.15-.68.61-1.57,1.09-2.67,1.42-1.1.33-2.43.5-3.97.5h-16.44l-1.94,11.38c1.29-.22,2.53-.39,3.73-.5,1.2-.11,2.36-.17,3.5-.17,3.62,0,6.82.55,9.59,1.65,2.77,1.1,5.1,2.61,6.99,4.51,1.89,1.91,3.31,4.14,4.27,6.71.96,2.57,1.44,5.31,1.44,8.24,0,3.68-.65,7.05-1.96,10.08-1.31,3.04-3.13,5.66-5.46,7.86-2.33,2.21-5.11,3.91-8.34,5.12-3.23,1.21-6.76,1.82-10.6,1.82-2.24,0-4.37-.24-6.4-.71-2.03-.47-3.94-1.11-5.72-1.91-1.78-.8-3.42-1.73-4.94-2.79-1.51-1.05-2.88-2.18-4.11-3.38l4.53-6.05c.47-.63,1.02-1.11,1.65-1.44.63-.33,1.31-.5,2.03-.5.94,0,1.83.26,2.67.78.83.52,1.75,1.09,2.74,1.7.99.61,2.15,1.17,3.47,1.68,1.32.5,2.96.76,4.91.76s3.62-.32,5.01-.97c1.39-.64,2.51-1.53,3.38-2.64.87-1.12,1.5-2.42,1.89-3.92.39-1.5.59-3.09.59-4.79,0-3.34-.94-5.88-2.83-7.63-1.89-1.75-4.57-2.62-8.03-2.62-3.09,0-6.11.58-9.07,1.75l-9.07-2.46,5.86-34.43h35.24M273.92,133.6h-46.3l-.85,4.99-5.86,34.43-.91,5.37,5.26,1.42,9.07,2.46,1.92.52,1.85-.73c2.28-.9,4.52-1.33,6.87-1.33,1.3,0,3.04.18,3.96,1.03.6.56.91,1.64.91,3.22,0,1.18-.13,2.28-.39,3.27-.19.72-.46,1.3-.83,1.77-.28.36-.65.64-1.17.88-.4.19-1.15.41-2.48.41-1.59,0-2.42-.23-2.78-.36-.96-.37-1.78-.76-2.45-1.17-.99-.61-1.9-1.18-2.73-1.69-1.8-1.12-3.76-1.69-5.84-1.69-1.7,0-3.33.4-4.82,1.19-1.41.74-2.65,1.8-3.66,3.15l-4.54,6.05-3.16,4.22,3.77,3.68c1.45,1.42,3.09,2.76,4.86,4,1.8,1.26,3.79,2.38,5.9,3.34,2.12.96,4.42,1.73,6.82,2.29,2.47.57,5.08.86,7.76.86,4.54,0,8.82-.74,12.71-2.2,3.97-1.49,7.45-3.64,10.35-6.38,2.91-2.76,5.22-6.07,6.84-9.85,1.62-3.78,2.45-7.97,2.45-12.45,0-3.63-.61-7.11-1.82-10.34-1.26-3.36-3.15-6.33-5.63-8.83-2.46-2.48-5.5-4.46-9.03-5.86-.75-.3-1.53-.57-2.32-.8h1.67c2.15,0,4.01-.24,5.69-.75,1.96-.59,3.64-1.5,4.98-2.72,1.38-1.25,2.41-2.74,3.06-4.44.58-1.51.87-3.15.87-4.89v-12.05h0Z" fill="url(#New_Gradient_Swatch2)"/>
        </g>
        <g>
          <path d="M318.78,156.28c0,2.52-.46,4.82-1.37,6.9-.91,2.08-2.12,3.87-3.64,5.36-1.51,1.5-3.27,2.65-5.27,3.47-2,.82-4.09,1.23-6.26,1.23-2.39,0-4.59-.41-6.59-1.23-2-.82-3.73-1.98-5.2-3.47-1.46-1.5-2.61-3.28-3.42-5.36-.82-2.08-1.23-4.38-1.23-6.9s.41-4.98,1.23-7.11c.82-2.13,1.96-3.94,3.42-5.46,1.46-1.51,3.2-2.68,5.2-3.52,2-.83,4.2-1.25,6.59-1.25s4.61.42,6.64,1.25c2.03.83,3.78,2.01,5.24,3.52,1.46,1.51,2.61,3.33,3.43,5.46.82,2.13,1.23,4.5,1.23,7.11ZM340.41,141.78c.47-.53,1.05-1.03,1.75-1.49.69-.46,1.65-.68,2.88-.68h10.67l-51.86,66.74c-.47.6-1.06,1.09-1.77,1.49-.71.39-1.57.59-2.57.59h-10.96l51.86-66.65ZM307.54,156.28c0-1.61-.13-2.94-.4-3.99-.27-1.05-.64-1.9-1.11-2.53-.47-.63-1.03-1.07-1.68-1.32-.64-.25-1.35-.38-2.1-.38s-1.45.13-2.08.38c-.63.25-1.16.69-1.61,1.32-.44.63-.79,1.47-1.04,2.53-.25,1.06-.38,2.39-.38,3.99,0,1.51.13,2.77.38,3.78.25,1.01.6,1.81,1.04,2.41.44.6.98,1.02,1.61,1.28.63.25,1.32.38,2.08.38s1.46-.13,2.1-.38c.65-.25,1.21-.68,1.68-1.28.47-.6.84-1.4,1.11-2.41.27-1.01.4-2.27.4-3.78ZM358.36,192.27c0,2.52-.46,4.83-1.37,6.92-.91,2.09-2.12,3.89-3.64,5.38-1.51,1.5-3.27,2.65-5.27,3.47s-4.09,1.23-6.26,1.23c-2.39,0-4.59-.41-6.59-1.23s-3.73-1.98-5.2-3.47c-1.46-1.5-2.61-3.29-3.42-5.38-.82-2.09-1.23-4.4-1.23-6.92s.41-4.98,1.23-7.11c.82-2.13,1.96-3.94,3.42-5.46,1.46-1.51,3.2-2.68,5.2-3.52,2-.83,4.2-1.25,6.59-1.25s4.61.42,6.64,1.25c2.03.83,3.78,2.01,5.24,3.52,1.46,1.51,2.61,3.33,3.42,5.46.82,2.12,1.23,4.5,1.23,7.11ZM347.12,192.27c0-1.57-.13-2.89-.4-3.94-.27-1.05-.64-1.9-1.11-2.53-.47-.63-1.03-1.07-1.68-1.32-.64-.25-1.35-.38-2.1-.38s-1.45.13-2.08.38c-.63.25-1.17.69-1.61,1.32-.44.63-.79,1.47-1.04,2.53-.25,1.06-.38,2.37-.38,3.94s.12,2.77.38,3.78c.25,1.01.6,1.81,1.04,2.41.44.6.97,1.02,1.61,1.28.63.25,1.32.38,2.08.38s1.46-.13,2.1-.38,1.21-.68,1.68-1.28c.47-.6.84-1.4,1.11-2.41.27-1.01.4-2.27.4-3.78Z" fill="url(#linear-gradient7)"/>
          <path d="M302.24,138.94c2.39,0,4.61.42,6.64,1.25,2.03.83,3.78,2.01,5.24,3.52,1.46,1.51,2.61,3.33,3.43,5.46.82,2.13,1.23,4.5,1.23,7.11s-.46,4.82-1.37,6.9c-.91,2.08-2.12,3.87-3.64,5.36-1.51,1.5-3.27,2.65-5.27,3.47-2,.82-4.09,1.23-6.26,1.23-2.39,0-4.59-.41-6.59-1.23-2-.82-3.73-1.98-5.2-3.47-1.46-1.5-2.61-3.28-3.42-5.36-.82-2.08-1.23-4.38-1.23-6.9s.41-4.98,1.23-7.11c.82-2.13,1.96-3.94,3.42-5.46,1.46-1.51,3.2-2.68,5.2-3.52,2-.83,4.2-1.25,6.59-1.25M302.24,164.12c.76,0,1.46-.13,2.1-.38.65-.25,1.21-.68,1.68-1.28.47-.6.84-1.4,1.11-2.41.27-1.01.4-2.27.4-3.78,0-1.61-.13-2.94-.4-3.99-.27-1.05-.64-1.9-1.11-2.53-.47-.63-1.03-1.07-1.68-1.32-.64-.25-1.35-.38-2.1-.38s-1.45.13-2.08.38c-.63.25-1.16.69-1.61,1.32-.44.63-.79,1.47-1.04,2.53-.25,1.06-.38,2.39-.38,3.99,0,1.51.13,2.77.38,3.78.25,1.01.6,1.81,1.04,2.41.44.6.98,1.02,1.61,1.28.63.25,1.32.38,2.08.38M355.71,139.6l-51.86,66.74c-.47.6-1.06,1.09-1.77,1.49-.71.39-1.57.59-2.57.59h-10.96l51.86-66.65c.47-.53,1.05-1.03,1.75-1.49.69-.46,1.65-.68,2.88-.68h10.67M341.83,174.93c2.39,0,4.61.42,6.64,1.25,2.03.83,3.78,2.01,5.24,3.52,1.46,1.51,2.61,3.33,3.42,5.46.82,2.12,1.23,4.5,1.23,7.11s-.46,4.83-1.37,6.92c-.91,2.09-2.12,3.89-3.64,5.38-1.51,1.5-3.27,2.65-5.27,3.47s-4.09,1.23-6.26,1.23c-2.39,0-4.59-.41-6.59-1.23s-3.73-1.98-5.2-3.47c-1.46-1.5-2.61-3.29-3.42-5.38-.82-2.09-1.23-4.4-1.23-6.92s.41-4.98,1.23-7.11c.82-2.13,1.96-3.94,3.42-5.46,1.46-1.51,3.2-2.68,5.2-3.52,2-.83,4.2-1.25,6.59-1.25M341.83,200.11c.76,0,1.46-.13,2.1-.38s1.21-.68,1.68-1.28c.47-.6.84-1.4,1.11-2.41.27-1.01.4-2.27.4-3.78s-.13-2.89-.4-3.94c-.27-1.05-.64-1.9-1.11-2.53-.47-.63-1.03-1.07-1.68-1.32-.64-.25-1.35-.38-2.1-.38s-1.45.13-2.08.38c-.63.25-1.17.69-1.61,1.32-.44.63-.79,1.47-1.04,2.53-.25,1.06-.38,2.37-.38,3.94s.12,2.77.38,3.78c.25,1.01.6,1.81,1.04,2.41.44.6.97,1.02,1.61,1.28.63.25,1.32.38,2.08.38M302.24,132.94c-3.18,0-6.17.58-8.9,1.71-2.75,1.15-5.17,2.79-7.19,4.88-2.02,2.09-3.61,4.6-4.71,7.48-1.08,2.8-1.63,5.92-1.63,9.26s.55,6.33,1.65,9.1c1.11,2.82,2.7,5.29,4.72,7.36,2.03,2.08,4.46,3.7,7.21,4.83,2.71,1.11,5.69,1.67,8.86,1.67.49,0,.97-.02,1.45-.05l-19.88,25.55-7.54,9.68h23.23c2.03,0,3.88-.45,5.49-1.34,1.41-.78,2.61-1.8,3.57-3.02l11.06-14.23c.26,1.94.73,3.8,1.41,5.54,1.11,2.84,2.7,5.33,4.72,7.4,2.04,2.08,4.46,3.7,7.21,4.83,2.72,1.11,5.7,1.68,8.86,1.68,2.94,0,5.81-.56,8.53-1.68,2.72-1.11,5.15-2.72,7.22-4.76,2.04-2.02,3.7-4.46,4.92-7.25,1.24-2.85,1.87-5.99,1.87-9.32s-.55-6.47-1.63-9.27c-1.1-2.87-2.69-5.38-4.71-7.47-2.03-2.1-4.48-3.74-7.27-4.89-2.75-1.13-5.75-1.7-8.92-1.7-.45,0-.89.01-1.33.03l19.96-25.68,7.52-9.68h-22.93c-2.41,0-4.49.56-6.18,1.67-1.15.76-2.14,1.61-2.95,2.54l-.12.14-.11.14-11.15,14.33c-.26-1.9-.72-3.71-1.37-5.41-1.11-2.88-2.7-5.39-4.72-7.48-2.03-2.1-4.48-3.75-7.27-4.89-2.75-1.13-5.75-1.7-8.92-1.7h0Z" fill="url(#New_Gradient_Swatch3)"/>
        </g>
      </g>
      <g>
        <g>
          <path d="M204.19,145.65c0,1.01-.16,1.92-.47,2.74-.31.82-.81,1.54-1.49,2.15-.68.61-1.57,1.09-2.67,1.42-1.1.33-2.43.5-3.97.5h-16.44l-1.94,11.38c1.29-.22,2.53-.39,3.73-.5,1.2-.11,2.36-.17,3.5-.17,3.62,0,6.82.55,9.59,1.65,2.77,1.1,5.1,2.61,6.99,4.51,1.89,1.91,3.31,4.14,4.27,6.71.96,2.57,1.44,5.31,1.44,8.24,0,3.68-.65,7.05-1.96,10.08-1.31,3.04-3.13,5.66-5.46,7.86-2.33,2.2-5.11,3.91-8.34,5.12-3.23,1.21-6.76,1.82-10.6,1.82-2.24,0-4.37-.24-6.4-.71-2.03-.47-3.94-1.11-5.72-1.91-1.78-.8-3.42-1.73-4.94-2.79-1.51-1.05-2.88-2.18-4.11-3.38l4.53-6.05c.47-.63,1.02-1.11,1.65-1.44.63-.33,1.31-.5,2.03-.5.94,0,1.83.26,2.67.78.83.52,1.75,1.09,2.74,1.7.99.61,2.15,1.17,3.47,1.68,1.32.5,2.96.76,4.91.76s3.62-.32,5.01-.97c1.39-.65,2.51-1.53,3.38-2.65.87-1.12,1.5-2.42,1.89-3.92.39-1.5.59-3.09.59-4.79,0-3.34-.94-5.88-2.83-7.63-1.89-1.75-4.57-2.62-8.03-2.62-3.09,0-6.11.58-9.07,1.75l-9.07-2.46,5.86-34.43h35.24v6.05Z" fill="url(#New_Gradient_Swatch_copy1)"/>
          <path d="M204.19,139.6v6.05c0,1.01-.16,1.92-.47,2.74-.31.82-.81,1.54-1.49,2.15-.68.61-1.57,1.09-2.67,1.42-1.1.33-2.43.5-3.97.5h-16.44l-1.94,11.38c1.29-.22,2.53-.39,3.73-.5,1.2-.11,2.36-.17,3.5-.17,3.62,0,6.82.55,9.59,1.65,2.77,1.1,5.1,2.61,6.99,4.51,1.89,1.91,3.31,4.14,4.27,6.71.96,2.57,1.44,5.31,1.44,8.24,0,3.68-.65,7.05-1.96,10.08-1.31,3.04-3.13,5.66-5.46,7.86-2.33,2.2-5.11,3.91-8.34,5.12-3.23,1.21-6.76,1.82-10.6,1.82-2.24,0-4.37-.24-6.4-.71-2.03-.47-3.94-1.11-5.72-1.91-1.78-.8-3.42-1.73-4.94-2.79-1.51-1.05-2.88-2.18-4.11-3.38l4.53-6.05c.47-.63,1.02-1.11,1.65-1.44.63-.33,1.31-.5,2.03-.5.94,0,1.83.26,2.67.78.83.52,1.75,1.09,2.74,1.7.99.61,2.15,1.17,3.47,1.68,1.32.5,2.96.76,4.91.76s3.62-.32,5.01-.97c1.39-.65,2.51-1.53,3.38-2.65.87-1.12,1.5-2.42,1.89-3.92.39-1.5.59-3.09.59-4.79,0-3.34-.94-5.88-2.83-7.63-1.89-1.75-4.57-2.62-8.03-2.62-3.09,0-6.11.58-9.07,1.75l-9.07-2.46,5.86-34.43h35.24M210.19,133.6h-46.3l-.85,4.99-5.86,34.43-.91,5.37,5.26,1.42,9.07,2.46,1.92.52,1.85-.73c2.28-.9,4.52-1.33,6.87-1.33,1.3,0,3.04.18,3.96,1.03.6.56.91,1.64.91,3.22,0,1.18-.13,2.28-.39,3.27-.19.72-.46,1.3-.83,1.77-.28.36-.65.64-1.17.88-.4.19-1.15.41-2.47.41-1.59,0-2.42-.23-2.78-.36-.96-.37-1.78-.76-2.45-1.17-.99-.61-1.9-1.17-2.72-1.69-1.8-1.12-3.76-1.69-5.84-1.69-1.7,0-3.32.4-4.82,1.18-1.42.74-2.65,1.8-3.66,3.15l-4.54,6.05-3.16,4.22,3.77,3.68c1.46,1.42,3.09,2.77,4.86,4,1.81,1.26,3.79,2.38,5.9,3.34,2.12.96,4.42,1.73,6.82,2.29,2.47.57,5.08.86,7.76.86,4.54,0,8.82-.74,12.71-2.2,3.96-1.49,7.45-3.64,10.35-6.38,2.92-2.76,5.22-6.07,6.84-9.85,1.62-3.78,2.45-7.97,2.45-12.46,0-3.63-.61-7.11-1.82-10.34-1.26-3.36-3.15-6.33-5.63-8.83-2.46-2.48-5.5-4.46-9.03-5.86-.75-.3-1.53-.57-2.32-.8h1.66c2.15,0,4.01-.24,5.69-.75,1.96-.59,3.64-1.5,4.98-2.72,1.38-1.25,2.41-2.74,3.06-4.44.58-1.51.87-3.15.87-4.89v-12.05h0Z" fill="url(#New_Gradient_Swatch4)"/>
        </g>
        <g>
          <path d="M271.56,173.99c0,6.01-.65,11.23-1.94,15.63-1.29,4.41-3.08,8.06-5.36,10.96-2.28,2.9-4.99,5.05-8.12,6.47s-6.53,2.13-10.18,2.13-7.03-.71-10.13-2.13c-3.1-1.42-5.79-3.57-8.05-6.47-2.27-2.9-4.04-6.55-5.31-10.96-1.28-4.41-1.91-9.62-1.91-15.63s.64-11.23,1.91-15.63c1.28-4.41,3.05-8.06,5.31-10.96,2.27-2.9,4.95-5.05,8.05-6.45,3.1-1.4,6.48-2.1,10.13-2.1s7.05.7,10.18,2.1c3.13,1.4,5.84,3.55,8.12,6.45,2.28,2.9,4.07,6.55,5.36,10.96,1.29,4.41,1.94,9.62,1.94,15.63ZM256.44,173.99c0-4.75-.3-8.65-.9-11.69-.6-3.04-1.39-5.42-2.39-7.16-.99-1.73-2.12-2.92-3.38-3.57-1.26-.65-2.54-.97-3.83-.97s-2.56.32-3.8.97c-1.24.65-2.35,1.83-3.31,3.57-.96,1.73-1.73,4.12-2.31,7.16-.58,3.04-.87,6.94-.87,11.69s.29,8.69.87,11.71c.58,3.02,1.35,5.41,2.31,7.16.96,1.75,2.06,2.94,3.31,3.59,1.24.65,2.51.97,3.8.97s2.57-.32,3.83-.97c1.26-.65,2.39-1.84,3.38-3.59.99-1.75,1.79-4.13,2.39-7.16.6-3.02.9-6.93.9-11.71Z" fill="url(#New_Gradient_Swatch_copy2)"/>
          <path d="M245.96,138.85c3.65,0,7.05.7,10.18,2.1,3.13,1.4,5.84,3.55,8.12,6.45,2.28,2.9,4.07,6.55,5.36,10.96,1.29,4.41,1.94,9.62,1.94,15.63s-.65,11.23-1.94,15.63c-1.29,4.41-3.08,8.06-5.36,10.96-2.28,2.9-4.99,5.05-8.12,6.47s-6.53,2.13-10.18,2.13-7.03-.71-10.13-2.13c-3.1-1.42-5.79-3.57-8.05-6.47-2.27-2.9-4.04-6.55-5.31-10.96-1.28-4.41-1.91-9.62-1.91-15.63s.64-11.23,1.91-15.63c1.28-4.41,3.05-8.06,5.31-10.96,2.27-2.9,4.95-5.05,8.05-6.45,3.1-1.4,6.48-2.1,10.13-2.1M245.96,197.42c1.29,0,2.57-.32,3.83-.97,1.26-.65,2.39-1.84,3.38-3.59.99-1.75,1.79-4.13,2.39-7.16.6-3.02.9-6.93.9-11.71s-.3-8.65-.9-11.69c-.6-3.04-1.39-5.42-2.39-7.16-.99-1.73-2.12-2.92-3.38-3.57-1.26-.65-2.54-.97-3.83-.97s-2.56.32-3.8.97c-1.24.65-2.35,1.83-3.31,3.57-.96,1.73-1.73,4.12-2.31,7.16-.58,3.04-.87,6.94-.87,11.69s.29,8.69.87,11.71c.58,3.02,1.35,5.41,2.31,7.16.96,1.75,2.06,2.94,3.31,3.59,1.24.65,2.51.97,3.8.97M245.96,132.85c-4.49,0-8.73.89-12.6,2.63-3.98,1.8-7.45,4.56-10.31,8.22-2.73,3.49-4.87,7.86-6.35,12.99-1.43,4.93-2.15,10.75-2.15,17.3s.72,12.37,2.15,17.3c1.48,5.13,3.62,9.5,6.35,12.99,2.85,3.65,6.31,6.42,10.28,8.23,3.87,1.77,8.12,2.67,12.62,2.67s8.75-.89,12.65-2.66c4-1.81,7.49-4.58,10.36-8.22,2.75-3.49,4.9-7.86,6.41-12.99,1.45-4.94,2.18-10.76,2.18-17.32s-.73-12.38-2.18-17.32c-1.5-5.13-3.66-9.5-6.41-12.99-2.88-3.65-6.38-6.42-10.39-8.21-3.9-1.74-8.14-2.62-12.63-2.62h0ZM244.95,191.14c-.06-.05-.38-.33-.84-1.17-.45-.82-1.11-2.42-1.68-5.4-.51-2.64-.77-6.19-.77-10.58s.26-7.91.77-10.56c.57-2.99,1.22-4.57,1.67-5.38.51-.93.86-1.17.86-1.17.47-.24.8-.27,1-.27.33,0,.69.1,1.09.31,0,0,0,0,0,0,0,0,.36.25.91,1.21.45.79,1.12,2.36,1.7,5.33.52,2.64.78,6.19.78,10.53s-.26,7.92-.78,10.55c-.59,2.96-1.26,4.55-1.72,5.36-.56.98-.92,1.23-.92,1.23-.38.19-.73.29-1.06.29-.2,0-.52-.03-1.01-.28h0Z" fill="url(#New_Gradient_Swatch5)"/>
        </g>
        <g>
          <path d="M317.01,156.28c0,2.52-.46,4.82-1.37,6.9s-2.12,3.87-3.64,5.36c-1.51,1.5-3.27,2.65-5.27,3.47-2,.82-4.09,1.23-6.26,1.23-2.39,0-4.59-.41-6.59-1.23-2-.82-3.73-1.98-5.2-3.47-1.46-1.5-2.61-3.28-3.42-5.36-.82-2.08-1.23-4.38-1.23-6.9s.41-4.98,1.23-7.11c.82-2.13,1.96-3.94,3.42-5.46,1.46-1.51,3.2-2.68,5.2-3.52,2-.83,4.2-1.25,6.59-1.25s4.61.42,6.64,1.25c2.03.83,3.78,2.01,5.24,3.52,1.46,1.51,2.61,3.33,3.43,5.46.82,2.13,1.23,4.5,1.23,7.11ZM338.65,141.78c.47-.53,1.05-1.03,1.75-1.49.69-.46,1.65-.68,2.88-.68h10.67l-51.86,66.74c-.47.6-1.06,1.09-1.77,1.49-.71.39-1.57.59-2.57.59h-10.96l51.86-66.65ZM305.77,156.28c0-1.61-.13-2.94-.4-3.99-.27-1.05-.64-1.9-1.11-2.53-.47-.63-1.03-1.07-1.68-1.32-.64-.25-1.35-.38-2.1-.38s-1.45.13-2.08.38c-.63.25-1.16.69-1.61,1.32-.44.63-.79,1.47-1.04,2.53-.25,1.06-.38,2.39-.38,3.99,0,1.51.13,2.77.38,3.78.25,1.01.6,1.81,1.04,2.41.44.6.98,1.02,1.61,1.28.63.25,1.32.38,2.08.38s1.46-.13,2.1-.38c.65-.25,1.21-.68,1.68-1.28.47-.6.84-1.4,1.11-2.41.27-1.01.4-2.27.4-3.78ZM356.59,192.27c0,2.52-.46,4.83-1.37,6.92-.91,2.09-2.12,3.89-3.64,5.38-1.51,1.5-3.27,2.65-5.27,3.47s-4.09,1.23-6.26,1.23c-2.39,0-4.59-.41-6.59-1.23s-3.73-1.98-5.2-3.47c-1.46-1.5-2.61-3.29-3.42-5.38s-1.23-4.4-1.23-6.92.41-4.98,1.23-7.11c.82-2.13,1.96-3.94,3.42-5.46,1.46-1.51,3.2-2.68,5.2-3.52,2-.83,4.2-1.25,6.59-1.25s4.61.42,6.64,1.25c2.03.83,3.78,2.01,5.24,3.52,1.46,1.51,2.61,3.33,3.42,5.46.82,2.13,1.23,4.5,1.23,7.11ZM345.35,192.27c0-1.57-.13-2.89-.4-3.94-.27-1.05-.64-1.9-1.11-2.53-.47-.63-1.03-1.07-1.68-1.32-.64-.25-1.35-.38-2.1-.38s-1.45.13-2.08.38c-.63.25-1.17.69-1.61,1.32-.44.63-.79,1.47-1.04,2.53-.25,1.06-.38,2.37-.38,3.94s.12,2.77.38,3.78c.25,1.01.6,1.81,1.04,2.41.44.6.97,1.02,1.61,1.28.63.25,1.32.38,2.08.38s1.46-.13,2.1-.38c.64-.25,1.21-.68,1.68-1.28.47-.6.84-1.4,1.11-2.41.27-1.01.4-2.27.4-3.78Z" fill="url(#New_Gradient_Swatch_copy3)"/>
          <path d="M300.48,138.94c2.39,0,4.61.42,6.64,1.25,2.03.83,3.78,2.01,5.24,3.52,1.46,1.51,2.61,3.33,3.43,5.46.82,2.13,1.23,4.5,1.23,7.11s-.46,4.82-1.37,6.9-2.12,3.87-3.64,5.36c-1.51,1.5-3.27,2.65-5.27,3.47-2,.82-4.09,1.23-6.26,1.23-2.39,0-4.59-.41-6.59-1.23-2-.82-3.73-1.98-5.2-3.47-1.46-1.5-2.61-3.28-3.42-5.36-.82-2.08-1.23-4.38-1.23-6.9s.41-4.98,1.23-7.11c.82-2.13,1.96-3.94,3.42-5.46,1.46-1.51,3.2-2.68,5.2-3.52,2-.83,4.2-1.25,6.59-1.25M300.48,164.12c.76,0,1.46-.13,2.1-.38.65-.25,1.21-.68,1.68-1.28.47-.6.84-1.4,1.11-2.41.27-1.01.4-2.27.4-3.78,0-1.61-.13-2.94-.4-3.99-.27-1.05-.64-1.9-1.11-2.53-.47-.63-1.03-1.07-1.68-1.32-.64-.25-1.35-.38-2.1-.38s-1.45.13-2.08.38c-.63.25-1.16.69-1.61,1.32-.44.63-.79,1.47-1.04,2.53-.25,1.06-.38,2.39-.38,3.99,0,1.51.13,2.77.38,3.78.25,1.01.6,1.81,1.04,2.41.44.6.98,1.02,1.61,1.28.63.25,1.32.38,2.08.38M353.95,139.6l-51.86,66.74c-.47.6-1.06,1.09-1.77,1.49-.71.39-1.57.59-2.57.59h-10.96l51.86-66.65c.47-.53,1.05-1.03,1.75-1.49.69-.46,1.65-.68,2.88-.68h10.67M340.06,174.93c2.39,0,4.61.42,6.64,1.25,2.03.83,3.78,2.01,5.24,3.52,1.46,1.51,2.61,3.33,3.42,5.46.82,2.13,1.23,4.5,1.23,7.11s-.46,4.83-1.37,6.92c-.91,2.09-2.12,3.89-3.64,5.38-1.51,1.5-3.27,2.65-5.27,3.47s-4.09,1.23-6.26,1.23c-2.39,0-4.59-.41-6.59-1.23s-3.73-1.98-5.2-3.47c-1.46-1.5-2.61-3.29-3.42-5.38s-1.23-4.4-1.23-6.92.41-4.98,1.23-7.11c.82-2.13,1.96-3.94,3.42-5.46,1.46-1.51,3.2-2.68,5.2-3.52,2-.83,4.2-1.25,6.59-1.25M340.06,200.11c.76,0,1.46-.13,2.1-.38.64-.25,1.21-.68,1.68-1.28.47-.6.84-1.4,1.11-2.41.27-1.01.4-2.27.4-3.78s-.13-2.89-.4-3.94c-.27-1.05-.64-1.9-1.11-2.53-.47-.63-1.03-1.07-1.68-1.32-.64-.25-1.35-.38-2.1-.38s-1.45.13-2.08.38c-.63.25-1.17.69-1.61,1.32-.44.63-.79,1.47-1.04,2.53-.25,1.06-.38,2.37-.38,3.94s.12,2.77.38,3.78c.25,1.01.6,1.81,1.04,2.41.44.6.97,1.02,1.61,1.28.63.25,1.32.38,2.08.38M300.48,132.94c-3.18,0-6.17.58-8.9,1.71-2.75,1.15-5.17,2.79-7.19,4.88-2.02,2.09-3.61,4.6-4.71,7.48-1.08,2.8-1.63,5.92-1.63,9.26s.55,6.33,1.65,9.1c1.11,2.82,2.7,5.29,4.72,7.36,2.03,2.08,4.46,3.7,7.21,4.83,2.71,1.11,5.69,1.67,8.86,1.67.49,0,.97-.02,1.45-.05l-19.88,25.55-7.54,9.68h23.23c2.04,0,3.88-.45,5.49-1.35,1.41-.78,2.6-1.8,3.57-3.01l11.06-14.23c.26,1.94.73,3.8,1.41,5.54,1.11,2.84,2.7,5.33,4.72,7.4,2.04,2.08,4.46,3.7,7.21,4.83,2.72,1.11,5.7,1.67,8.86,1.67,2.94,0,5.81-.56,8.53-1.67,2.72-1.11,5.15-2.72,7.22-4.76,2.04-2.02,3.7-4.46,4.92-7.25,1.24-2.85,1.87-5.98,1.87-9.32s-.55-6.46-1.63-9.27c-1.1-2.87-2.69-5.38-4.71-7.47-2.03-2.1-4.48-3.74-7.27-4.89-2.75-1.13-5.75-1.7-8.92-1.7-.45,0-.89.01-1.33.03l19.96-25.68,7.52-9.68h-22.93c-2.41,0-4.49.56-6.18,1.67-1.15.76-2.14,1.61-2.95,2.54l-.12.14-.11.14-11.15,14.33c-.26-1.9-.72-3.71-1.37-5.41-1.11-2.88-2.7-5.39-4.72-7.48-2.03-2.1-4.48-3.75-7.27-4.89-2.75-1.13-5.75-1.7-8.92-1.7h0Z" fill="url(#New_Gradient_Swatch6)"/>
        </g>
      </g>
    </g>
  </g>
</svg>