<?xml version="1.0" encoding="UTF-8"?>
<svg id="solid" xmlns="http://www.w3.org/2000/svg" version="1.1" viewBox="0 0 64 64">
  <!-- Generator: Adobe Illustrator 30.0.0, SVG Export Plug-In . SVG Version: 2.1.1 Build 123)  -->
  <defs>
    <style>
      .st0 {
        fill: #111827;
      }

      .st1 {
        fill: #22d3ee;
      }
    </style>
  </defs>
  <rect class="st0" x="0" y="0" width="64" height="64" rx="8" ry="8"/>
  <path class="st1" d="M38.78,42.92c-1.02,1.02-2.37,1.58-3.81,1.58h-1.57c1.38.97,3.9,2.28,6.37,1.05,2.3-1.14,2.36-3.86,2.13-5.62-.2.17-.4.33-.63.48,0,0-2.49,2.51-2.49,2.51Z"/>
  <path class="st1" d="M25.22,42.92l-2.57-2.57c-.2-.13-.37-.29-.55-.44-.24,1.76-.18,4.49,2.12,5.64,2.47,1.23,4.99-.08,6.37-1.05h-1.57c-1.44,0-2.79-.56-3.81-1.58h0Z"/>
  <path class="st1" d="M14.88,29.51c.15-.04,5.43-1.17,5.43-1.17.12.1.19,5.5.19,5.65,0,.04.04,3.76,2.78,5.58l2.65,2.63c.83.83,1.93,1.28,3.1,1.28h5.95c1.17,0,2.27-.46,3.1-1.28l2.57-2.57c2.81-1.89,2.85-5.61,2.85-5.65,0-.15.07-5.56.19-5.65,0,0,5.28,1.13,5.43,1.17.02,0,1.53.38,3.37.67l2.12-5.83c-4.12-1.06-8.99-2.3-12.25-3.09-.48,1.01-1.36,2.06-2.86,3.01v1.57h.39c1.07,0,1.95.87,1.95,1.95v.62c0,.84-.53,1.58-1.33,1.85l-1.04.35c-.1,1.54-.6,3.01-1.5,4.28l-1.51,2.11c-.68.95-1.78,1.51-2.94,1.51h-3.02c-1.16,0-2.26-.56-2.94-1.51l-1.51-2.11c-.9-1.27-1.4-2.74-1.5-4.28l-1.04-.35c-.8-.27-1.33-1.01-1.33-1.85v-.62c0-1.07.87-1.95,1.95-1.95h.39v-1.63c-.4-.43-1.52-1.73-1.94-3.17-3.1.74-8.51,2.12-13.17,3.32l2.12,5.83c1.83-.29,3.34-.66,3.37-.67h-.02Z"/>
  <path class="st1" d="M23.17,27.78v.62c0,.41.26.77.65.9l.69.23v-2.7h-.39c-.52,0-.94.43-.94.95h-.01Z"/>
  <path class="st1" d="M29,26.5c-.08,0-.15-.02-.22-.05l-3.28-1.64v5.25c0,1.52.47,2.99,1.35,4.23l1.51,2.11c.49.69,1.28,1.09,2.12,1.09h3.02c.84,0,1.63-.41,2.12-1.09l1.51-2.11c.89-1.24,1.35-2.7,1.35-4.23v-5.56h-6.35l-2.87,1.92c-.08.06-.18.08-.28.08h.02ZM32.5,32.5h-1v-2.5c0-.28.22-.5.5-.5s.5.22.5.5v1.5"/>
  <path class="st1" d="M9.34,45.5h-5.08l-1.39.91-1.37,1.8v1.29h3.34l2.97-1.95c.05-.04.11-.05.17-.05.14,0,.27.1.34.28l.43,1.13c.14.36.42.59.73.59h.7c.13,0,.21-.1.24-.15.04-.06.09-.18.06-.34l-.41-2.72c-.07-.46-.38-.79-.74-.79h0Z"/>
  <path class="st1" d="M9.5,44.5v-4.4c0-2-.32-3.98-.95-5.88l-1.02-3.06c-.05-.15-.03-.32.07-.45.09-.13.24-.21.41-.21.79,0,1.66-.07,2.5-.18l-2.08-5.72c-2.53.65-4.75,1.23-6.13,1.59-.46.12-1.14.54-1.14,1.03l.35,1.73,3.89,15.56h4.11-.01Z"/>
  <path class="st1" d="M31.21,14.82l-2.17,2.27-2.33-.97-1.25,2.55-2.28.52c-.14,1.39,1.5,3.75,2.13,4.39l3.67,1.83,2.89-1.92h7.01c3.55-2.19,3.16-4.87,2.85-5.88l-2.43-.1-1.8-2.28-3.04,1.37"/>
  <path class="st1" d="M40.83,28.4v-.62c0-.52-.42-.95-.95-.95h-.39v2.7l.69-.23c.39-.13.65-.49.65-.9Z"/>
  <path class="st1" d="M54.66,45.5c-.36,0-.67.33-.74.79l-.41,2.72c-.03.17.03.29.06.34.04.06.11.15.24.15h.7c.31,0,.59-.23.73-.59l.43-1.13c.09-.25.32-.35.51-.22l2.97,1.95h3.34v-1.29l-1.37-1.8-1.39-.91h-5.08,0Z"/>
  <path class="st1" d="M61.71,26.18c-1.04-.27-3.36-.87-6.13-1.59l-2.08,5.73c.84.1,1.71.18,2.5.18.16,0,.31.08.41.21.09.13.12.3.07.45l-1.02,3.06c-.63,1.9-.95,3.88-.95,5.88v4.4h4.11l3.89-15.56.35-1.38c0-.48-.67-1.25-1.13-1.37h-.02Z"/>
</svg>